<svg width="36" height="36" viewBox="0 0 36 36" fill="none" xmlns="http://www.w3.org/2000/svg">
<circle cx="18" cy="18" r="18" fill="url(#paint0_linear_4179_4886)"/>
<path d="M18.1667 15.8933C17.717 15.8933 17.2775 16.0267 16.9037 16.2765C16.5298 16.5263 16.2384 16.8813 16.0664 17.2967C15.8943 17.7121 15.8493 18.1692 15.937 18.6102C16.0247 19.0512 16.2412 19.4562 16.5592 19.7742C16.8771 20.0921 17.2822 20.3086 17.7232 20.3963C18.1641 20.484 18.6212 20.439 19.0366 20.267C19.452 20.0949 19.8071 19.8035 20.0569 19.4297C20.3067 19.0558 20.44 18.6163 20.44 18.1667C20.44 17.8681 20.3812 17.5725 20.267 17.2967C20.1527 17.0209 19.9853 16.7703 19.7742 16.5592C19.5631 16.3481 19.3124 16.1806 19.0366 16.0664C18.7608 15.9521 18.4652 15.8933 18.1667 15.8933ZM27.2692 13.6475C27.2643 12.9396 27.134 12.2382 26.8842 11.5758C26.7002 11.0912 26.4155 10.651 26.0489 10.2844C25.6823 9.91784 25.2422 9.63316 24.7575 9.44917C24.0951 9.19934 23.3937 9.06899 22.6858 9.06417C21.5033 9 21.155 9 18.1667 9C15.1783 9 14.83 9 13.6475 9.06417C12.9396 9.06899 12.2382 9.19934 11.5758 9.44917C11.0912 9.63316 10.651 9.91784 10.2844 10.2844C9.91784 10.651 9.63316 11.0912 9.44917 11.5758C9.19934 12.2382 9.06899 12.9396 9.06417 13.6475C9 14.83 9 15.1783 9 18.1667C9 21.155 9 21.5033 9.06417 22.6858C9.07403 23.3962 9.20421 24.0998 9.44917 24.7667C9.63234 25.2491 9.91678 25.6867 10.2833 26.05C10.6483 26.4188 11.0894 26.7035 11.5758 26.8842C12.2382 27.134 12.9396 27.2643 13.6475 27.2692C14.83 27.3333 15.1783 27.3333 18.1667 27.3333C21.155 27.3333 21.5033 27.3333 22.6858 27.2692C23.3937 27.2643 24.0951 27.134 24.7575 26.8842C25.2439 26.7035 25.685 26.4188 26.05 26.05C26.4165 25.6867 26.701 25.2491 26.8842 24.7667C27.1338 24.1011 27.2641 23.3967 27.2692 22.6858C27.3333 21.5033 27.3333 21.155 27.3333 18.1667C27.3333 15.1783 27.3333 14.83 27.2692 13.6475ZM24.9408 20.9808C24.9114 21.5465 24.7907 22.1037 24.5833 22.6308C24.4054 23.0705 24.1408 23.47 23.8054 23.8054C23.47 24.1408 23.0705 24.4054 22.6308 24.5833C22.0987 24.7791 21.5384 24.8875 20.9717 24.9042C20.2475 24.9042 20.055 24.9042 18.1667 24.9042C16.2783 24.9042 16.0858 24.9042 15.3617 24.9042C14.7949 24.8875 14.2346 24.7791 13.7025 24.5833C13.2479 24.4144 12.8374 24.1449 12.5017 23.795C12.1695 23.4661 11.913 23.0689 11.75 22.6308C11.5534 22.0993 11.4481 21.5383 11.4383 20.9717C11.4383 20.2475 11.4383 20.055 11.4383 18.1667C11.4383 16.2783 11.4383 16.0858 11.4383 15.3617C11.4481 14.795 11.5534 14.2341 11.75 13.7025C11.9189 13.2479 12.1884 12.8374 12.5383 12.5017C12.8686 12.1713 13.2655 11.9151 13.7025 11.75C14.2346 11.5542 14.7949 11.4459 15.3617 11.4292C16.0858 11.4292 16.2783 11.4292 18.1667 11.4292C20.055 11.4292 20.2475 11.4292 20.9717 11.4292C21.5384 11.4459 22.0987 11.5542 22.6308 11.75C23.0854 11.9189 23.4959 12.1884 23.8317 12.5383C24.1638 12.8672 24.4203 13.2645 24.5833 13.7025C24.7791 14.2346 24.8875 14.7949 24.9042 15.3617C24.9042 16.0858 24.9042 16.2783 24.9042 18.1667C24.9042 20.055 24.9683 20.2475 24.9408 20.9717V20.9808ZM23.4742 14.1608C23.365 13.8647 23.1929 13.5958 22.9698 13.3727C22.7467 13.1496 22.4778 12.9775 22.1817 12.8683C21.7751 12.7274 21.3469 12.6591 20.9167 12.6667C20.2017 12.6667 20 12.6667 18.1667 12.6667C16.3333 12.6667 16.1317 12.6667 15.4167 12.6667C14.9842 12.6709 14.556 12.7516 14.1517 12.905C13.8601 13.0092 13.5941 13.1742 13.3712 13.3892C13.1484 13.6041 12.9738 13.8641 12.8592 14.1517C12.726 14.5599 12.661 14.9873 12.6667 15.4167C12.6667 16.1317 12.6667 16.3333 12.6667 18.1667C12.6667 20 12.6667 20.2017 12.6667 20.9167C12.6758 21.3486 12.7563 21.776 12.905 22.1817C13.0141 22.4778 13.1862 22.7467 13.4094 22.9698C13.6325 23.1929 13.9014 23.365 14.1975 23.4742C14.5886 23.618 15.0002 23.6985 15.4167 23.7125C16.1317 23.7125 16.3333 23.7125 18.1667 23.7125C20 23.7125 20.2017 23.7125 20.9167 23.7125C21.3491 23.7083 21.7774 23.6276 22.1817 23.4742C22.4778 23.365 22.7467 23.1929 22.9698 22.9698C23.1929 22.7467 23.365 22.4778 23.4742 22.1817C23.6276 21.7774 23.7083 21.3491 23.7125 20.9167C23.7125 20.2017 23.7125 20 23.7125 18.1667C23.7125 16.3333 23.7125 16.1317 23.7125 15.4167C23.7128 14.9838 23.6319 14.5547 23.4742 14.1517V14.1608ZM18.1667 21.6683C17.7073 21.6683 17.2524 21.5777 16.828 21.4016C16.4037 21.2255 16.0183 20.9674 15.6939 20.6422C15.3694 20.3169 15.1124 19.9308 14.9374 19.506C14.7624 19.0812 14.673 18.6261 14.6742 18.1667C14.6742 17.4737 14.8798 16.7963 15.2649 16.2203C15.6501 15.6443 16.1975 15.1954 16.8379 14.9307C17.4783 14.6659 18.1828 14.5971 18.8624 14.733C19.5419 14.8688 20.1658 15.2032 20.6551 15.6939C21.1445 16.1845 21.4773 16.8093 21.6113 17.4892C21.7454 18.169 21.6748 18.8734 21.4083 19.5131C21.1419 20.1527 20.6916 20.699 20.1146 21.0827C19.5375 21.4663 18.8596 21.6701 18.1667 21.6683ZM21.8333 15.3525C21.6307 15.3311 21.4432 15.2354 21.3069 15.0839C21.1706 14.9324 21.0952 14.7359 21.0952 14.5321C21.0952 14.3283 21.1706 14.1318 21.3069 13.9803C21.4432 13.8288 21.6307 13.7331 21.8333 13.7117C22.036 13.7331 22.2235 13.8288 22.3598 13.9803C22.4961 14.1318 22.5715 14.3283 22.5715 14.5321C22.5715 14.7359 22.4961 14.9324 22.3598 15.0839C22.2235 15.2354 22.036 15.3311 21.8333 15.3525Z" fill="white"/>
<defs>
<linearGradient id="paint0_linear_4179_4886" x1="26.0644" y1="18.2222" x2="-0.785976" y2="18.7792" gradientUnits="userSpaceOnUse">
<stop stop-color="#3858FF"/>
<stop offset="0.635417" stop-color="#B745FF"/>
<stop offset="1" stop-color="#D940FF"/>
</linearGradient>
</defs>
</svg>
