<svg width="36" height="36" viewBox="0 0 36 36" fill="none" xmlns="http://www.w3.org/2000/svg">
<circle cx="18" cy="18" r="18" fill="url(#paint0_linear_2144_62)"/>
<path d="M27.8957 26.7014V26.7006H27.9005V19.6587C27.9005 16.2138 27.1589 13.5601 23.1315 13.5601C21.1954 13.5601 19.8962 14.6225 19.3658 15.6297H19.3098V13.8817H15.4912V26.7006H19.4674V20.3531C19.4674 18.6819 19.7842 17.0658 21.8539 17.0658C23.8931 17.0658 23.9235 18.9731 23.9235 20.4603V26.7014H27.8957Z" fill="white"/>
<path d="M9.01562 13.8818H12.9966V26.7007H9.01562V13.8818Z" fill="white"/>
<path d="M11.0059 7.49854C9.73303 7.49854 8.7002 8.53138 8.7002 9.80422C8.7002 11.0771 9.73303 12.1315 11.0059 12.1315C12.2787 12.1315 13.3116 11.0771 13.3116 9.80422C13.3108 8.53138 12.2779 7.49854 11.0059 7.49854V7.49854Z" fill="white"/>
<defs>
<linearGradient id="paint0_linear_2144_62" x1="26.0644" y1="18.2222" x2="-0.785976" y2="18.7792" gradientUnits="userSpaceOnUse">
<stop stop-color="#3858FF"/>
<stop offset="0.635417" stop-color="#B745FF"/>
<stop offset="1" stop-color="#D940FF"/>
</linearGradient>
</defs>
</svg>
